<svg xmlns="http://www.w3.org/2000/svg" version="1.1" xmlns:xlink="http://www.w3.org/1999/xlink" xmlns:svgjs="http://svgjs.dev/svgjs" width="128" height="128" viewBox="0 0 128 128"><g transform="matrix(0.8046875,0,0,0.8046875,12.333870967741937,12.333870967741937)"><svg viewBox="0 0 155 155" data-background-color="#ffffff" preserveAspectRatio="xMidYMid meet" height="128" width="128" xmlns="http://www.w3.org/2000/svg" xmlns:xlink="http://www.w3.org/1999/xlink"><g id="tight-bounds" transform="matrix(1,0,0,1,0.25,0.25)"><svg viewBox="0 0 154.5 154.5" height="154.5" width="154.5"><g><svg></svg></g><g><svg viewBox="0 0 154.5 154.5" height="154.5" width="154.5"><g><path d="M0 144.15l47.538-82.337v5.074l-43.064 74.588h145.552l-43.064-74.588 0-5.074 47.538 82.337zM77.25 10.35l21.26 36.823h-2.929l-18.331-31.75-18.331 31.75-2.929 0z" fill="#000000" fill-rule="nonzero" stroke="none" stroke-width="1" stroke-linecap="butt" stroke-linejoin="miter" stroke-miterlimit="10" stroke-dasharray="" stroke-dashoffset="0" font-family="none" font-weight="none" font-size="none" text-anchor="none" style="mix-blend-mode: normal" data-fill-palette-color="tertiary"></path></g><g transform="matrix(1,0,0,1,56.130897457627114,55.766774999999996)"><svg viewBox="0 0 42.238205084745765 42.96645" height="42.96645" width="42.238205084745765"><g><svg viewBox="0 0 42.238205084745765 42.96645" height="42.96645" width="42.238205084745765"><g><svg viewBox="0 0 42.238205084745765 42.96645" height="42.96645" width="42.238205084745765"><g id="textblocktransform"><svg viewBox="0 0 42.238205084745765 42.96645" height="42.96645" width="42.238205084745765" id="textblock"><g><svg viewBox="0 0 42.238205084745765 42.96645" height="42.96645" width="42.238205084745765"><g transform="matrix(1,0,0,1,0,0)"><svg width="42.238205084745765" viewBox="0 -25.9 26.1 26.549999999999997" height="42.96645" data-palette-color="#000000"><path d="M26.1-24.2L25.45-22.55 22.75-22.1 14.55 0.65 9.8 0.5 2.25-23.4 0-24.05 0.15-25.4 8.95-25.5 9.1-24.15 6.55-23.2 11.8-3.6 13.25-3.9 19.1-23.4 17.25-24.7 17.6-25.9 26.1-24.2Z" opacity="1" transform="matrix(1,0,0,1,0,0)" fill="#000000" class="wordmark-text-0" data-fill-palette-color="primary" id="text-0"></path></svg></g></svg></g></svg></g></svg></g><g></g></svg></g></svg></g></svg></g><defs></defs></svg><rect width="154.5" height="154.5" fill="none" stroke="none" visibility="hidden"></rect></g></svg></g></svg>