<svg xmlns="http://www.w3.org/2000/svg" version="1.1" xmlns:xlink="http://www.w3.org/1999/xlink" xmlns:svgjs="http://svgjs.dev/svgjs" width="2000" height="1500" viewBox="0 0 2000 1500"><rect width="2000" height="1500" fill="#000000"></rect><g transform="matrix(0.75,0,0,0.75,249.090909090909,282.7536437246963)"><svg viewBox="0 0 396 247" data-background-color="#ffffff" preserveAspectRatio="xMidYMid meet" height="1247" width="2000" xmlns="http://www.w3.org/2000/svg" xmlns:xlink="http://www.w3.org/1999/xlink"><g id="tight-bounds" transform="matrix(1,0,0,1,0.2400000000000091,-0.09999999999999432)"><svg viewBox="0 0 395.52 247.2" height="247.2" width="395.52"><g><svg></svg></g><g><svg viewBox="0 0 395.52 247.2" height="247.2" width="395.52"><g><path d="M55.039 247.2l65.796-113.961 0 13.135-54.212 93.898h262.274l-54.212-93.898 0-13.135 65.796 113.961zM197.76 0l26.403 45.732-7.583 0-18.82-32.596-18.82 32.596-7.583 0z" fill="#ffffff" fill-rule="nonzero" stroke="none" stroke-width="1" stroke-linecap="butt" stroke-linejoin="miter" stroke-miterlimit="10" stroke-dasharray="" stroke-dashoffset="0" font-family="none" font-weight="none" font-size="none" text-anchor="none" style="mix-blend-mode: normal" data-fill-palette-color="tertiary"></path></g><g transform="matrix(1,0,0,1,143.08271186440678,67.97999999999999)"><svg viewBox="0 0 109.35457627118643 111.24" height="111.24" width="109.35457627118643"><g><svg viewBox="0 0 109.35457627118643 111.24" height="111.24" width="109.35457627118643"><g><svg viewBox="0 0 109.35457627118643 111.24" height="111.24" width="109.35457627118643"><g><svg viewBox="0 0 109.35457627118643 111.24" height="111.24" width="109.35457627118643"><g id="textblocktransform"><svg viewBox="0 0 109.35457627118643 111.24" height="111.24" width="109.35457627118643" id="textblock"><g><svg viewBox="0 0 109.35457627118643 111.24" height="111.24" width="109.35457627118643"><g transform="matrix(1,0,0,1,0,0)"><svg width="109.35457627118643" viewBox="0 -25.9 26.1 26.549999999999997" height="111.24" data-palette-color="#000000"><path d="M26.1-24.2L25.45-22.55 22.75-22.1 14.55 0.65 9.8 0.5 2.25-23.4 0-24.05 0.15-25.4 8.95-25.5 9.1-24.15 6.55-23.2 11.8-3.6 13.25-3.9 19.1-23.4 17.25-24.7 17.6-25.9 26.1-24.2Z" opacity="1" transform="matrix(1,0,0,1,0,0)" fill="#ffffff" class="wordmark-text-0" data-fill-palette-color="primary" id="text-0"></path></svg></g></svg></g></svg></g></svg></g><g></g></svg></g></svg></g></svg></g></svg></g><defs></defs></svg><rect width="395.52" height="247.2" fill="none" stroke="none" visibility="hidden"></rect></g></svg></g></svg>